<?xml version="1.0" encoding="UTF-8" standalone="no"?>
<!-- Created with Inkscape (http://www.inkscape.org/) -->

<svg
   xmlns:dc="http://purl.org/dc/elements/1.1/"
   xmlns:cc="http://creativecommons.org/ns#"
   xmlns:rdf="http://www.w3.org/1999/02/22-rdf-syntax-ns#"
   xmlns:svg="http://www.w3.org/2000/svg"
   xmlns="http://www.w3.org/2000/svg"
   version="1.1"
   width="128"
   height="128"
   id="svg2">
  <defs
     id="defs4" />
  <metadata
     id="metadata7">
    <rdf:RDF>
      <cc:Work
         rdf:about="">
        <dc:format>image/svg+xml</dc:format>
        <dc:type
           rdf:resource="http://purl.org/dc/dcmitype/StillImage" />
        <dc:title></dc:title>
      </cc:Work>
    </rdf:RDF>
  </metadata>
  <g
     transform="translate(0,-924.36217)"
     id="layer1"
     style="display:none">
    <g
       transform="matrix(0.70011096,0,0,0.70011096,19.192898,296.39899)"
       id="g3941">
      <g
         id="g3932">
        <g
           id="g3935">
          <path
             d="m 128,1052.3622 -128,0 64,-128 0,0 z"
             id="path3920"
             style="fill:#14dc64;fill-opacity:1;fill-rule:nonzero;stroke:none" />
        </g>
      </g>
      <g
         id="g3938">
        <path
           d="m 128,1052.3622 -64,-26 -64,26 64,-128 0,0 z"
           id="path3922"
           style="opacity:0.27918785;fill:#000000;fill-opacity:1;fill-rule:nonzero;stroke:none" />
      </g>
      <path
         d="m 128,1052.3622 -64,-26 0,-102 0,0 z"
         id="path3924"
         style="opacity:0.25;fill:#000000;fill-opacity:1;fill-rule:nonzero;stroke:none" />
    </g>
  </g>
  <g
     id="layer2"
     style="display:none">
    <path
       d="m 127.27922,64.36039 a 63.134533,63.134533 0 1 1 -126.2690691,0 63.134533,63.134533 0 1 1 126.2690691,0 z"
       transform="matrix(0.89313976,0,0,0.89313976,6.709832,6.5171766)"
       id="path3999"
       style="opacity:0.95999995;fill:none;stroke:#8e8e8e;stroke-width:13.43574715;stroke-miterlimit:4;stroke-opacity:1;stroke-dasharray:none" />
    <path
       d="m 64,30.038083 0,67.923832"
       id="path4003"
       style="opacity:0.95999995;fill:none;stroke:#8e8e8e;stroke-width:12;stroke-linecap:square;stroke-linejoin:miter;stroke-miterlimit:4;stroke-opacity:1;stroke-dasharray:none" />
    <path
       d="m 97.961915,63.999998 -67.92383,0"
       id="path4007"
       style="opacity:0.95999995;fill:none;stroke:#8e8e8e;stroke-width:12;stroke-linecap:square;stroke-linejoin:miter;stroke-miterlimit:4;stroke-opacity:1;stroke-dasharray:none" />
  </g>
  <g
     id="g4009"
     style="display:none">
    <path
       d="m 84.506047,13.747131 c 0,0 13.035259,-9.7173522 26.714003,3.961392 13.67874,13.678742 3.96139,26.714002 3.96139,26.714002 l -59.116161,59.116155 -40.365568,9.69018 9.690175,-40.365567 z"
       id="rect4017"
       style="fill:none;stroke:#8e8e8e;stroke-width:12;stroke-linecap:square;stroke-linejoin:miter;stroke-miterlimit:4;stroke-opacity:1;stroke-dasharray:none;stroke-dashoffset:0" />
    <path
       d="m 26.506047,71.747131 18.458969,2.068274 10.255555,9.867128 1.960869,18.739997 -1.116161,1.11615 -40.365568,9.69018 9.690175,-40.365567 z"
       id="path4024"
       style="fill:none;stroke:#8e8e8e;stroke-width:12;stroke-linecap:square;stroke-linejoin:miter;stroke-miterlimit:4;stroke-opacity:1;stroke-dasharray:none;stroke-dashoffset:0" />
    <path
       d="m 21.681652,101.62089 c 0,0 2.390737,-1.78222 4.899494,0.72654 2.508755,2.50875 0.72654,4.89949 0.72654,4.89949 l -0.20471,0.20471 -7.403265,1.77723 1.77723,-7.40326 z"
       id="path4026"
       style="fill:none;stroke:#8e8e8e;stroke-width:12;stroke-linecap:square;stroke-linejoin:miter;stroke-miterlimit:4;stroke-opacity:1;stroke-dasharray:none;stroke-dashoffset:0" />
  </g>
  <g
     id="g3013"
     style="display:inline">
    <rect
       width="103.54063"
       height="87.63073"
       ry="8.586297"
       x="10.859139"
       y="19.913677"
       id="rect3815"
       style="fill:#8e8e8e;fill-opacity:1;fill-rule:nonzero;stroke:none" />
    <text
       x="60.333942"
       y="96.191742"
       transform="scale(1.0331285,0.96793381)"
       id="text3792"
       xml:space="preserve"
       style="font-size:66.48220062px;font-style:normal;font-variant:normal;font-weight:normal;font-stretch:normal;text-align:center;line-height:125%;letter-spacing:0px;word-spacing:0px;text-anchor:middle;fill:#000000;fill-opacity:1;stroke:none;font-family:FontAwesome;-inkscape-font-specification:FontAwesome"><tspan
         x="60.333942"
         y="96.191742"
         id="tspan3794"
         style="font-weight:500;text-align:center;text-anchor:middle;fill:#ffffff;font-family:Ubuntu;-inkscape-font-specification:Ubuntu Medium">1</tspan></text>
    <rect
       width="92.331947"
       height="12.898293"
       ry="4.5456862"
       x="16.463478"
       y="25.56871"
       id="rect3817"
       style="fill:#ffffff;fill-opacity:1;fill-rule:nonzero;stroke:none" />
    <rect
       width="9.5964394"
       height="24.748734"
       rx="4.7982197"
       ry="4.7982197"
       x="25.831234"
       y="9.9136772"
       id="rect3819"
       style="fill:#8e8e8e;fill-opacity:1;fill-rule:nonzero;stroke:none" />
    <rect
       width="9.5964394"
       height="24.748734"
       rx="4.7982197"
       ry="4.7982197"
       x="89.831238"
       y="9.9136772"
       id="rect3821"
       style="fill:#8e8e8e;fill-opacity:1;fill-rule:nonzero;stroke:none" />
    <rect
       width="9.5964394"
       height="24.748734"
       rx="4.7982197"
       ry="4.7982197"
       x="57.831238"
       y="9.9136772"
       id="rect3823"
       style="fill:#8e8e8e;fill-opacity:1;fill-rule:nonzero;stroke:none" />
  </g>
  <g
     transform="translate(0,-924.36217)"
     id="g3949"
     style="opacity:0.9;display:none">
    <g
       transform="matrix(0.70011096,0,0,0.70011096,19.192898,296.39899)"
       id="g3951">
      <path
         d="m 0,924.36218 128,0 -64,128.00002 0,0 z"
         id="path3953"
         style="fill:#dc4814;fill-opacity:1;fill-rule:nonzero;stroke:none" />
      <path
         d="m 0,924.36218 64,26 64,-26 -64,128.00002 0,0 z"
         id="path3955"
         style="opacity:0.27918785;fill:#000000;fill-opacity:1;fill-rule:nonzero;stroke:none" />
      <path
         d="m 0,924.36218 64,26 0,102.00002 0,0 z"
         id="path3957"
         style="opacity:0.25;fill:#000000;fill-opacity:1;fill-rule:nonzero;stroke:none" />
      <path
         d="m 0,924.36218 128,0 -64,128.00002 0,0 z"
         id="path3959"
         style="fill:#dc4814;fill-opacity:1;fill-rule:nonzero;stroke:none" />
      <path
         d="m 0,924.36218 64,26 64,-26 -64,128.00002 0,0 z"
         id="path3961"
         style="opacity:0.27918785;fill:#000000;fill-opacity:1;fill-rule:nonzero;stroke:none" />
      <path
         d="m 0,924.36218 64,26 0,102.00002 0,0 z"
         id="path3963"
         style="opacity:0.25;fill:#000000;fill-opacity:1;fill-rule:nonzero;stroke:none" />
    </g>
  </g>
</svg>
