<?xml version="1.0" encoding="UTF-8" standalone="no"?>
<!-- Created with Inkscape (http://www.inkscape.org/) -->

<svg
   xmlns:dc="http://purl.org/dc/elements/1.1/"
   xmlns:cc="http://creativecommons.org/ns#"
   xmlns:rdf="http://www.w3.org/1999/02/22-rdf-syntax-ns#"
   xmlns:svg="http://www.w3.org/2000/svg"
   xmlns="http://www.w3.org/2000/svg"
   xmlns:sodipodi="http://sodipodi.sourceforge.net/DTD/sodipodi-0.dtd"
   xmlns:inkscape="http://www.inkscape.org/namespaces/inkscape"
   width="128"
   height="128"
   id="svg2"
   version="1.1"
   inkscape:version="0.48.4 r9939"
   inkscape:export-filename="/home/joaolopes/git/StockPortfolioCpp/src/qml/graphics/add.png"
   inkscape:export-xdpi="22.5"
   inkscape:export-ydpi="22.5"
   sodipodi:docname="line_orange.svg">
  <defs
     id="defs4">
    <marker
       inkscape:stockid="Arrow1Mend"
       orient="auto"
       refY="0.0"
       refX="0.0"
       id="Arrow1Mend"
       style="overflow:visible;">
      <path
         id="path3805"
         d="M 0.0,0.0 L 5.0,-5.0 L -12.5,0.0 L 5.0,5.0 L 0.0,0.0 z "
         style="fill-rule:evenodd;stroke:#000000;stroke-width:1.0pt;"
         transform="scale(0.4) rotate(180) translate(10,0)" />
    </marker>
  </defs>
  <sodipodi:namedview
     id="base"
     pagecolor="#ffffff"
     bordercolor="#666666"
     borderopacity="1.0"
     inkscape:pageopacity="0.0"
     inkscape:pageshadow="2"
     inkscape:zoom="2.8"
     inkscape:cx="70.14215"
     inkscape:cy="70.945665"
     inkscape:document-units="px"
     inkscape:current-layer="layer3"
     showgrid="false"
     inkscape:window-width="1313"
     inkscape:window-height="744"
     inkscape:window-x="53"
     inkscape:window-y="24"
     inkscape:window-maximized="1" />
  <metadata
     id="metadata7">
    <rdf:RDF>
      <cc:Work
         rdf:about="">
        <dc:format>image/svg+xml</dc:format>
        <dc:type
           rdf:resource="http://purl.org/dc/dcmitype/StillImage" />
        <dc:title></dc:title>
      </cc:Work>
    </rdf:RDF>
  </metadata>
  <g
     inkscape:label="Up arrow"
     inkscape:groupmode="layer"
     id="layer1"
     transform="translate(0,-924.36217)"
     style="display:none">
    <g
       id="g3941"
       transform="matrix(0.70011096,0,0,0.70011096,19.192898,296.39899)"
       inkscape:export-filename="/home/joaolopes/git/StockPortfolioCpp/src/qml/graphics/up_arrow.png"
       inkscape:export-xdpi="64"
       inkscape:export-ydpi="64">
      <g
         id="g3932">
        <g
           id="g3935">
          <path
             style="fill:#14dc64;fill-opacity:1;fill-rule:nonzero;stroke:none"
             d="m 128,1052.3622 -128,0 64,-128 0,0 z"
             id="path3920"
             inkscape:connector-curvature="0"
             sodipodi:nodetypes="ccccc" />
        </g>
      </g>
      <g
         id="g3938">
        <path
           style="opacity:0.27918785;fill:#000000;fill-opacity:1;fill-rule:nonzero;stroke:none"
           d="m 128,1052.3622 -64,-26 -64,26 64,-128 0,0 z"
           id="path3922"
           inkscape:connector-curvature="0"
           sodipodi:nodetypes="cccccc" />
      </g>
      <path
         style="opacity:0.25;fill:#000000;fill-opacity:1;fill-rule:nonzero;stroke:none"
         d="m 128,1052.3622 -64,-26 0,-102 0,0 z"
         id="path3924"
         inkscape:connector-curvature="0"
         sodipodi:nodetypes="ccccc" />
    </g>
  </g>
  <g
     inkscape:groupmode="layer"
     id="layer2"
     inkscape:label="Add"
     style="display:none">
    <path
       sodipodi:type="arc"
       style="opacity:0.95999995;fill:none;stroke:#8e8e8e;stroke-width:13.43574715;stroke-miterlimit:4;stroke-opacity:1;stroke-dasharray:none"
       id="path3999"
       sodipodi:cx="64.144684"
       sodipodi:cy="64.36039"
       sodipodi:rx="63.134533"
       sodipodi:ry="63.134533"
       d="m 127.27922,64.36039 a 63.134533,63.134533 0 1 1 -126.2690691,0 63.134533,63.134533 0 1 1 126.2690691,0 z"
       transform="matrix(0.89313976,0,0,0.89313976,6.709832,6.5171766)" />
    <path
       style="opacity:0.95999995;fill:none;stroke:#8e8e8e;stroke-width:12;stroke-linecap:square;stroke-linejoin:miter;stroke-miterlimit:4;stroke-opacity:1;stroke-dasharray:none"
       d="m 64,30.038083 0,67.923832"
       id="path4003"
       inkscape:connector-curvature="0" />
    <path
       inkscape:connector-curvature="0"
       id="path4007"
       d="m 97.961915,63.999998 -67.92383,0"
       style="opacity:0.95999995;fill:none;stroke:#8e8e8e;stroke-width:12;stroke-linecap:square;stroke-linejoin:miter;stroke-miterlimit:4;stroke-opacity:1;stroke-dasharray:none" />
  </g>
  <g
     inkscape:label="Edit"
     id="g4009"
     inkscape:groupmode="layer"
     style="display:none">
    <path
       style="fill:none;stroke:#8e8e8e;stroke-width:12;stroke-linecap:square;stroke-linejoin:miter;stroke-miterlimit:4;stroke-opacity:1;stroke-dasharray:none;stroke-dashoffset:0"
       d="m 84.506047,13.747131 c 0,0 13.035259,-9.7173522 26.714003,3.961392 13.67874,13.678742 3.96139,26.714002 3.96139,26.714002 l -59.116161,59.116155 -40.365568,9.69018 9.690175,-40.365567 z"
       id="rect4017"
       inkscape:connector-curvature="0"
       sodipodi:nodetypes="czccccc" />
    <path
       sodipodi:nodetypes="cccccccc"
       inkscape:connector-curvature="0"
       id="path4024"
       d="m 26.506047,71.747131 18.458969,2.068274 10.255555,9.867128 1.960869,18.739997 -1.116161,1.11615 -40.365568,9.69018 9.690175,-40.365567 z"
       style="fill:none;stroke:#8e8e8e;stroke-width:12;stroke-linecap:square;stroke-linejoin:miter;stroke-miterlimit:4;stroke-opacity:1;stroke-dasharray:none;stroke-dashoffset:0" />
    <path
       style="fill:none;stroke:#8e8e8e;stroke-width:12;stroke-linecap:square;stroke-linejoin:miter;stroke-miterlimit:4;stroke-opacity:1;stroke-dasharray:none;stroke-dashoffset:0"
       d="m 21.681652,101.62089 c 0,0 2.390737,-1.78222 4.899494,0.72654 2.508755,2.50875 0.72654,4.89949 0.72654,4.89949 l -0.20471,0.20471 -7.403265,1.77723 1.77723,-7.40326 z"
       id="path4026"
       inkscape:connector-curvature="0"
       sodipodi:nodetypes="czccccc" />
  </g>
  <g
     style="display:none"
     inkscape:groupmode="layer"
     id="g3013"
     inkscape:label="Calendar">
    <rect
       style="fill:#8e8e8e;fill-opacity:1;fill-rule:nonzero;stroke:none"
       id="rect3815"
       width="103.54063"
       height="87.63073"
       x="10.859139"
       y="19.913677"
       ry="8.586297" />
    <text
       xml:space="preserve"
       style="font-size:66.48220062px;font-style:normal;font-variant:normal;font-weight:normal;font-stretch:normal;text-align:center;line-height:125%;letter-spacing:0px;word-spacing:0px;text-anchor:middle;fill:#000000;fill-opacity:1;stroke:none;font-family:FontAwesome;-inkscape-font-specification:FontAwesome"
       x="60.333942"
       y="96.191742"
       id="text3792"
       sodipodi:linespacing="125%"
       transform="scale(1.0331285,0.96793381)"><tspan
         sodipodi:role="line"
         id="tspan3794"
         x="60.333942"
         y="96.191742"
         style="font-weight:500;text-align:center;text-anchor:middle;fill:#ffffff;font-family:Ubuntu;-inkscape-font-specification:Ubuntu Medium">1</tspan></text>
    <rect
       style="fill:#ffffff;fill-opacity:1;fill-rule:nonzero;stroke:none"
       id="rect3817"
       width="92.331947"
       height="12.898293"
       x="16.463478"
       y="25.56871"
       ry="4.5456862" />
    <rect
       ry="4.7982197"
       y="9.9136772"
       x="25.831234"
       height="24.748734"
       width="9.5964394"
       id="rect3819"
       style="fill:#8e8e8e;fill-opacity:1;fill-rule:nonzero;stroke:none"
       rx="4.7982197" />
    <rect
       rx="4.7982197"
       style="fill:#8e8e8e;fill-opacity:1;fill-rule:nonzero;stroke:none"
       id="rect3821"
       width="9.5964394"
       height="24.748734"
       x="89.831238"
       y="9.9136772"
       ry="4.7982197" />
    <rect
       ry="4.7982197"
       y="9.9136772"
       x="57.831238"
       height="24.748734"
       width="9.5964394"
       id="rect3823"
       style="fill:#8e8e8e;fill-opacity:1;fill-rule:nonzero;stroke:none"
       rx="4.7982197" />
  </g>
  <g
     inkscape:groupmode="layer"
     id="layer3"
     inkscape:label="line">
    <path
       style="fill:none;stroke:#000000;stroke-width:0;stroke-linecap:butt;stroke-linejoin:miter;stroke-miterlimit:4;stroke-opacity:1;stroke-dasharray:none;marker-end:url(#Arrow1Mend)"
       d="M 13.285717,94.714286 61.500003,42.928572 82.214289,73.642857 114.71428,33.285715"
       id="path3022"
       inkscape:connector-curvature="0" />
    <path
       style="font-size:medium;font-style:normal;font-variant:normal;font-weight:normal;font-stretch:normal;text-indent:0;text-align:start;text-decoration:none;line-height:normal;letter-spacing:normal;word-spacing:normal;text-transform:none;direction:ltr;block-progression:tb;writing-mode:lr-tb;text-anchor:start;baseline-shift:baseline;color:#000000;fill:#14dc64;fill-opacity:1;stroke:none;stroke-width:12.60000038000000089;marker:none;visibility:visible;display:inline;overflow:visible;enable-background:accumulate;font-family:Sans;-inkscape-font-specification:Sans"
       d="m 64,47.75 c -6.730971,0 -12.501866,4.10513 -14.96875,9.9375 l -37.71875,0 0,12.625 37.71875,0 C 51.498134,76.14487 57.269029,80.25 64,80.25 c 6.730971,0 12.501866,-4.10513 14.96875,-9.9375 l 37.71875,0 0,-12.625 -37.71875,0 C 76.501866,51.85513 70.730971,47.75 64,47.75 z m 0,9.267767 c 3.856181,0 6.982233,3.126052 6.982233,6.982233 0,3.856181 -3.126052,6.982233 -6.982233,6.982233 -3.856181,0 -6.982233,-3.126052 -6.982233,-6.982233 0,-3.856181 3.126052,-6.982233 6.982233,-6.982233 z"
       id="path4418"
       inkscape:connector-curvature="0"
       sodipodi:nodetypes="sccccsccccssssss" />
  </g>
  <g
     transform="translate(0,-924.36217)"
     id="g3949"
     inkscape:groupmode="layer"
     inkscape:label="Down arrow"
     style="opacity:0.9;display:none">
    <g
       inkscape:export-ydpi="48.206638"
       inkscape:export-xdpi="48.206638"
       inkscape:export-filename="/home/joaolopes/git/StockPortfolioCpp/src/qml/graphics/up_arrow.png"
       transform="matrix(0.70011096,0,0,0.70011096,19.192898,296.39899)"
       id="g3951">
      <path
         sodipodi:nodetypes="ccccc"
         inkscape:connector-curvature="0"
         id="path3953"
         d="m 0,924.36218 128,0 -64,128.00002 0,0 z"
         style="fill:#dc4814;fill-opacity:1;fill-rule:nonzero;stroke:none" />
      <path
         style="opacity:0.27918785;fill:#000000;fill-opacity:1;fill-rule:nonzero;stroke:none"
         d="m 0,924.36218 64,26 64,-26 -64,128.00002 0,0 z"
         id="path3955"
         inkscape:connector-curvature="0"
         sodipodi:nodetypes="cccccc" />
      <path
         sodipodi:nodetypes="ccccc"
         inkscape:connector-curvature="0"
         id="path3957"
         d="m 0,924.36218 64,26 0,102.00002 0,0 z"
         style="opacity:0.25;fill:#000000;fill-opacity:1;fill-rule:nonzero;stroke:none" />
      <path
         style="fill:#dc4814;fill-opacity:1;fill-rule:nonzero;stroke:none"
         d="m 0,924.36218 128,0 -64,128.00002 0,0 z"
         id="path3959"
         inkscape:connector-curvature="0"
         sodipodi:nodetypes="ccccc" />
      <path
         sodipodi:nodetypes="cccccc"
         inkscape:connector-curvature="0"
         id="path3961"
         d="m 0,924.36218 64,26 64,-26 -64,128.00002 0,0 z"
         style="opacity:0.27918785;fill:#000000;fill-opacity:1;fill-rule:nonzero;stroke:none" />
      <path
         style="opacity:0.25;fill:#000000;fill-opacity:1;fill-rule:nonzero;stroke:none"
         d="m 0,924.36218 64,26 0,102.00002 0,0 z"
         id="path3963"
         inkscape:connector-curvature="0"
         sodipodi:nodetypes="ccccc" />
    </g>
  </g>
</svg>
